<svg width="21" height="21" viewBox="0 0 21 21" fill="none" xmlns="http://www.w3.org/2000/svg">
<g clip-path="url(#clip0_4340_914)">
<path d="M19.2878 13.4949C18.0633 13.4949 16.861 13.3034 15.7217 12.9269C15.1634 12.7365 14.4771 12.9111 14.1364 13.2611L11.8876 14.9587C9.27961 13.5666 7.67315 11.9606 6.30003 9.37224L7.94768 7.18203C8.37575 6.75453 8.5293 6.13005 8.34534 5.54411C7.96721 4.3988 7.77513 3.19708 7.77513 1.97208C7.77518 1.08714 7.05523 0.367188 6.17034 0.367188H2.49742C1.61253 0.367188 0.892578 1.08714 0.892578 1.97203C0.892578 12.1153 9.14456 20.3672 19.2878 20.3672C20.1727 20.3672 20.8926 19.6472 20.8926 18.7623V15.0997C20.8926 14.2148 20.1726 13.4949 19.2878 13.4949Z" fill="white"/>
</g>
<defs>
<clipPath id="clip0_4340_914">
<rect width="20" height="20" fill="white" transform="translate(0.892578 0.367188)"/>
</clipPath>
</defs>
</svg>
