<svg width="33" height="47" viewBox="0 0 33 47" fill="none" xmlns="http://www.w3.org/2000/svg">
<path d="M32.0367 16.657C32.0367 14.5691 31.6255 12.5016 30.8265 10.5727C30.0275 8.64368 28.8563 6.89097 27.38 5.41459C25.9036 3.93821 24.1509 2.76708 22.2219 1.96807C20.2929 1.16906 18.2254 0.757813 16.1375 0.757812C14.0496 0.757813 11.9821 1.16906 10.0531 1.96807C8.12415 2.76708 6.37144 3.93821 4.89506 5.41459C3.41868 6.89097 2.24755 8.64368 1.44854 10.5727C0.649526 12.5016 0.238281 14.5691 0.238281 16.657C0.238281 19.8074 1.16725 22.7374 2.74809 25.2085H2.72992L16.1375 46.1842L29.5451 25.2085H29.5292C31.1666 22.657 32.037 19.6888 32.0367 16.657ZM16.1375 23.471C14.3303 23.471 12.5972 22.7531 11.3193 21.4752C10.0414 20.1974 9.32355 18.4642 9.32355 16.657C9.32355 14.8499 10.0414 13.1167 11.3193 11.8388C12.5972 10.561 14.3303 9.84308 16.1375 9.84308C17.9447 9.84308 19.6778 10.561 20.9557 11.8388C22.2336 13.1167 22.9515 14.8499 22.9515 16.657C22.9515 18.4642 22.2336 20.1974 20.9557 21.4752C19.6778 22.7531 17.9447 23.471 16.1375 23.471Z" fill="#FF0D0D"/>
</svg>
