<svg width="90" height="91" viewBox="0 0 90 91" fill="none" xmlns="http://www.w3.org/2000/svg">
<path d="M44.998 11.7996C45.3243 11.7994 45.6372 11.6697 45.8679 11.439C46.0986 11.2083 46.2283 10.8954 46.2285 10.5691V4.86328C46.2285 4.53694 46.0989 4.22397 45.8681 3.99321C45.6374 3.76245 45.3244 3.63281 44.998 3.63281C44.6717 3.63281 44.3587 3.76245 44.128 3.99321C43.8972 4.22397 43.7676 4.53694 43.7676 4.86328V10.5691C43.7678 10.8954 43.8975 11.2083 44.1282 11.439C44.3589 11.6697 44.6718 11.7994 44.998 11.7996Z" fill="#ED323A"/>
<path d="M80.6661 39.3008H74.9609C74.6346 39.3008 74.3216 39.4304 74.0909 39.6612C73.8601 39.8919 73.7305 40.2049 73.7305 40.5312C73.7305 40.8576 73.8601 41.1706 74.0909 41.4013C74.3216 41.6321 74.6346 41.7617 74.9609 41.7617H80.6661C80.9924 41.7617 81.3054 41.6321 81.5362 41.4013C81.7669 41.1706 81.8966 40.8576 81.8966 40.5312C81.8966 40.2049 81.7669 39.8919 81.5362 39.6612C81.3054 39.4304 80.9924 39.3008 80.6661 39.3008Z" fill="#ED323A"/>
<path d="M15.0359 39.3008H9.33008C9.00374 39.3008 8.69076 39.4304 8.46001 39.6612C8.22925 39.8919 8.09961 40.2049 8.09961 40.5312C8.09961 40.8576 8.22925 41.1706 8.46001 41.4013C8.69076 41.6321 9.00374 41.7617 9.33008 41.7617H15.0359C15.3623 41.7617 15.6753 41.6321 15.906 41.4013C16.1368 41.1706 16.2664 40.8576 16.2664 40.5312C16.2664 40.2049 16.1368 39.8919 15.906 39.6612C15.6753 39.4304 15.3623 39.3008 15.0359 39.3008Z" fill="#ED323A"/>
<path d="M69.3492 14.4423L65.3139 18.4768C65.1964 18.5904 65.1027 18.7262 65.0383 18.8763C64.9738 19.0264 64.9399 19.1879 64.9385 19.3513C64.9371 19.5147 64.9683 19.6767 65.0302 19.8279C65.0921 19.9791 65.1835 20.1165 65.2991 20.232C65.4146 20.3475 65.552 20.4388 65.7032 20.5007C65.8545 20.5625 66.0165 20.5936 66.1799 20.5921C66.3433 20.5907 66.5047 20.5567 66.6548 20.4922C66.8049 20.4277 66.9407 20.3339 67.0542 20.2164L71.0887 16.1818C71.3194 15.9512 71.449 15.6383 71.449 15.3121C71.449 14.9858 71.3194 14.673 71.0887 14.4423C70.858 14.2116 70.5452 14.082 70.2189 14.082C69.8927 14.082 69.5799 14.2116 69.3492 14.4423Z" fill="#ED323A"/>
<path d="M22.9416 60.848L18.9071 64.8826C18.7895 64.9961 18.6958 65.1318 18.6312 65.2819C18.5667 65.432 18.5328 65.5935 18.5313 65.7569C18.5298 65.9203 18.5609 66.0823 18.6228 66.2335C18.6846 66.3847 18.776 66.5222 18.8915 66.6377C19.007 66.7533 19.1443 66.8447 19.2956 66.9066C19.4468 66.9685 19.6088 66.9996 19.7722 66.9982C19.9355 66.9969 20.097 66.9629 20.2471 66.8985C20.3973 66.834 20.5331 66.7403 20.6466 66.6228L24.6776 62.5855C24.9018 62.3534 25.0259 62.0427 25.0232 61.72C25.0204 61.3974 24.8911 61.0888 24.663 60.8606C24.4349 60.6324 24.1263 60.5029 23.8037 60.5C23.481 60.4972 23.1702 60.6211 22.9381 60.8452L22.9416 60.848Z" fill="#ED323A"/>
<path d="M67.0541 60.8474C66.8208 60.6313 66.5128 60.5138 66.1948 60.5197C65.8768 60.5257 65.5735 60.6545 65.3484 60.8792C65.1233 61.1039 64.994 61.4071 64.9876 61.7251C64.9811 62.0431 65.098 62.3512 65.3138 62.5848L69.3491 66.6194C69.4626 66.7369 69.5984 66.8306 69.7485 66.895C69.8987 66.9595 70.0601 66.9934 70.2235 66.9948C70.3869 66.9962 70.5489 66.965 70.7001 66.9031C70.8513 66.8412 70.9887 66.7498 71.1042 66.6343C71.2197 66.5187 71.3111 66.3813 71.3729 66.2301C71.4347 66.0788 71.4658 65.9168 71.4644 65.7534C71.4629 65.5901 71.429 65.4286 71.3644 65.2785C71.2999 65.1284 71.2062 64.9926 71.0886 64.8791L67.0541 60.8474Z" fill="#ED323A"/>
<path d="M22.9416 20.2134C23.1752 20.4286 23.4831 20.5452 23.8007 20.5385C24.1183 20.5319 24.4211 20.4026 24.6455 20.1777C24.8699 19.9529 24.9986 19.6499 25.0046 19.3323C25.0106 19.0146 24.8934 18.707 24.6776 18.4738L20.6431 14.4393C20.4091 14.2274 20.1025 14.1136 19.7868 14.1215C19.4712 14.1294 19.1707 14.2584 18.9476 14.4818C18.7244 14.7052 18.5958 15.0059 18.5882 15.3215C18.5807 15.6372 18.6949 15.9436 18.9071 16.1774L22.9416 20.2134Z" fill="#ED323A"/>
<path d="M70.895 40.531C70.895 40.5169 70.8915 40.5035 70.8915 40.4895C70.8915 40.4339 70.895 40.3791 70.8915 40.3235C70.8411 33.4709 68.0767 26.9176 63.2038 22.0993C58.3309 17.281 51.7469 14.5906 44.8942 14.6174C38.0414 14.6442 31.4787 17.386 26.6436 22.2423C21.8086 27.0985 19.0954 33.6732 19.0986 40.526V40.5352C19.1028 44.1566 19.8651 47.7371 21.3364 51.0462C22.8078 54.3553 24.9556 57.3197 27.6416 59.7488C29.0395 61.0158 30.1565 62.5614 30.9209 64.2862C31.6853 66.011 32.08 67.8768 32.0797 69.7634V78.904C32.0823 79.6306 32.3221 80.3365 32.7626 80.9143C33.2032 81.4922 33.8203 81.9104 34.5203 82.1053L36.103 86.4169C36.1898 86.6534 36.3472 86.8576 36.5538 87.0018C36.7604 87.1461 37.0063 87.2234 37.2582 87.2234H52.7382C52.9902 87.2234 53.2361 87.1461 53.4427 87.0018C53.6493 86.8576 53.8067 86.6534 53.8935 86.4169L55.4762 82.1053C56.1762 81.9104 56.7933 81.4922 57.2338 80.9143C57.6744 80.3365 57.9142 79.6306 57.9168 78.904V69.7634C57.9292 67.8591 58.3378 65.9782 59.1167 64.2404C59.8955 62.5026 61.0275 60.9459 62.4407 59.6693C65.0932 57.2476 67.2139 54.3013 68.6682 51.0171C70.1226 47.7329 70.879 44.1825 70.8894 40.5907C70.8901 40.5703 70.895 40.5513 70.895 40.531ZM68.4004 39.3005H61.0295C60.8679 39.3004 60.7078 39.3322 60.5585 39.394C60.4092 39.4558 60.2735 39.5464 60.1592 39.6607C60.0449 39.775 59.9543 39.9106 59.8925 40.06C59.8307 40.2093 59.7989 40.3693 59.799 40.531V42.5131C59.7881 43.1609 59.5231 43.7784 59.0611 44.2327C58.5991 44.6869 57.9772 44.9415 57.3293 44.9415C56.6814 44.9415 56.0595 44.6869 55.5975 44.2327C55.1355 43.7784 54.8705 43.1609 54.8596 42.5131V40.531C54.8597 40.3693 54.8279 40.2093 54.7661 40.06C54.7043 39.9106 54.6137 39.775 54.4994 39.6607C54.3851 39.5464 54.2494 39.4558 54.1001 39.394C53.9508 39.3322 53.7907 39.3004 53.6291 39.3005H46.2287V33.1278H46.9804C48.288 33.1278 49.542 32.6083 50.4666 31.6837C51.3912 30.7591 51.9107 29.505 51.9107 28.1974C51.9107 26.8898 51.3912 25.6358 50.4666 24.7112C49.542 23.7866 48.288 23.2671 46.9804 23.2671H46.2287V17.1267C52.0242 17.3912 57.5116 19.8123 61.6137 23.9148C65.7158 28.0173 68.1364 33.5049 68.4004 39.3005ZM43.7678 17.1324V24.4976C43.768 24.8239 43.8977 25.1367 44.1284 25.3675C44.3591 25.5982 44.672 25.7279 44.9982 25.7281H46.9804C47.6353 25.7281 48.2634 25.9882 48.7265 26.4513C49.1896 26.9144 49.4497 27.5425 49.4497 28.1974C49.4497 28.8524 49.1896 29.4805 48.7265 29.9436C48.2634 30.4067 47.6353 30.6668 46.9804 30.6668H44.9982C44.672 30.667 44.3591 30.7967 44.1284 31.0274C43.8977 31.2581 43.768 31.571 43.7678 31.8973V39.3005H37.5957V38.5488C37.5802 37.2514 37.0539 36.0123 36.131 35.1002C35.208 34.1882 33.9627 33.6767 32.6651 33.6767C31.3675 33.6767 30.1222 34.1882 29.1992 35.1002C28.2762 36.0123 27.7499 37.2514 27.7344 38.5488V39.3005H21.5954C21.9226 33.5269 24.3637 28.0759 28.4532 23.9872C32.5426 19.8985 37.9942 17.4584 43.7678 17.1324ZM29.2918 57.9227C24.6931 53.7631 21.9262 47.9535 21.5947 41.7614H28.967C29.2933 41.7614 29.6063 41.6318 29.8371 41.401C30.0678 41.1703 30.1975 40.8573 30.1975 40.531V38.5488C30.2084 37.9011 30.4734 37.2835 30.9354 36.8292C31.3974 36.375 32.0193 36.1204 32.6672 36.1204C33.3151 36.1204 33.937 36.375 34.399 36.8292C34.861 37.2835 35.126 37.9011 35.1369 38.5488V40.531C35.1369 40.8573 35.2666 41.1703 35.4973 41.401C35.7281 41.6318 36.041 41.7614 36.3674 41.7614H43.7678V47.9335H43.0161C41.7085 47.9335 40.4545 48.4529 39.5299 49.3775C38.6053 50.3021 38.0858 51.5562 38.0858 52.8638C38.0858 54.1714 38.6053 55.4254 39.5299 56.35C40.4545 57.2746 41.7085 57.7941 43.0161 57.7941H43.7678V69.1981H34.5259C34.4513 67.0642 33.9496 64.967 33.0506 63.0304C32.1516 61.0938 30.8735 59.357 29.2918 57.9227ZM55.4558 74.4905H34.5407V71.659H55.4558V74.4905ZM54.5769 79.7836H35.4196C35.1865 79.7834 34.9631 79.6908 34.7983 79.526C34.6335 79.3612 34.5409 79.1377 34.5407 78.9047V76.9514H55.4558V78.9047C55.4556 79.1377 55.363 79.3612 55.1982 79.526C55.0334 79.6908 54.81 79.7834 54.5769 79.7836ZM51.8797 84.7631H38.1168L37.1936 82.2446H52.8029L51.8797 84.7631ZM60.7827 57.8524C59.189 59.2967 57.8986 61.0436 56.9866 62.9915C56.0746 64.9393 55.5592 67.0491 55.4706 69.1981H46.2287V56.5636C46.2285 56.2373 46.0988 55.9245 45.8681 55.6937C45.6374 55.463 45.3245 55.3333 44.9982 55.3331H43.0161C42.3612 55.3331 41.7331 55.073 41.27 54.6099C40.8069 54.1468 40.5468 53.5187 40.5468 52.8638C40.5468 52.2088 40.8069 51.5808 41.27 51.1177C41.7331 50.6546 42.3612 50.3944 43.0161 50.3944H44.9982C45.3245 50.3942 45.6374 50.2645 45.8681 50.0338C46.0988 49.8031 46.2285 49.4902 46.2287 49.1639V41.7614H52.4007V42.5131C52.4162 43.8106 52.9425 45.0497 53.8655 45.9617C54.7885 46.8737 56.0338 47.3852 57.3314 47.3852C58.629 47.3852 59.8743 46.8737 60.7973 45.9617C61.7203 45.0497 62.2466 43.8106 62.2621 42.5131V41.7614H68.3975C68.0698 47.9167 65.3347 53.6963 60.7827 57.8524Z" fill="#ED323A"/>
</svg>
