<svg width="91" height="91" viewBox="0 0 91 91" fill="none" xmlns="http://www.w3.org/2000/svg">
<path d="M17.0426 12.375H9.12262C5.88262 12.375 3.18262 15.075 3.18262 18.315V68.175C3.18262 71.415 5.88262 74.115 9.12262 74.115H43.3226" stroke="#ED323A" stroke-width="1.8" stroke-miterlimit="10" stroke-linecap="round" stroke-linejoin="round"/>
<path d="M42.7822 12.375H50.8822C54.1222 12.375 56.8222 15.075 56.8222 18.315V41.895" stroke="#ED323A" stroke-width="1.8" stroke-miterlimit="10" stroke-linecap="round" stroke-linejoin="round"/>
<path d="M17.043 18.3164H9.12305V68.1764H41.343" stroke="#ED323A" stroke-width="1.8" stroke-miterlimit="10" stroke-linecap="round" stroke-linejoin="round"/>
<path d="M42.7822 18.3164H50.8822V44.9564" stroke="#ED323A" stroke-width="1.8" stroke-miterlimit="10" stroke-linecap="round" stroke-linejoin="round"/>
<path d="M42.783 19.9341H17.043V12.0141C17.043 10.0341 18.663 8.41406 20.643 8.41406H39.183C41.163 8.41406 42.783 10.0341 42.783 12.0141V19.9341Z" stroke="#ED323A" stroke-width="1.8" stroke-miterlimit="10" stroke-linecap="round" stroke-linejoin="round"/>
<path d="M23.7031 8.41594V4.81594C23.7031 3.73594 24.6031 2.83594 25.6831 2.83594H34.1431C35.2231 2.83594 36.1231 3.73594 36.1231 4.81594V8.41594" stroke="#ED323A" stroke-width="1.8" stroke-miterlimit="10" stroke-linecap="round" stroke-linejoin="round"/>
<path d="M17.583 30.375H42.243" stroke="#ED323A" stroke-width="1.8" stroke-miterlimit="10" stroke-linecap="round" stroke-linejoin="round"/>
<path d="M27.3027 37.9336H42.2427" stroke="#ED323A" stroke-width="1.8" stroke-miterlimit="10" stroke-linecap="round" stroke-linejoin="round"/>
<path d="M17.583 37.9336H21.903" stroke="#ED323A" stroke-width="1.8" stroke-miterlimit="10" stroke-linecap="round" stroke-linejoin="round"/>
<path d="M37.2031 45.4961H42.2431" stroke="#ED323A" stroke-width="1.8" stroke-miterlimit="10" stroke-linecap="round" stroke-linejoin="round"/>
<path d="M17.583 45.4961H31.803" stroke="#ED323A" stroke-width="1.8" stroke-miterlimit="10" stroke-linecap="round" stroke-linejoin="round"/>
<path d="M17.583 53.0547H36.663" stroke="#ED323A" stroke-width="1.8" stroke-miterlimit="10" stroke-linecap="round" stroke-linejoin="round"/>
<path d="M33.2432 60.6172H33.7832" stroke="#ED323A" stroke-width="1.8" stroke-miterlimit="10" stroke-linecap="round" stroke-linejoin="round"/>
<path d="M17.583 60.6172H27.843" stroke="#ED323A" stroke-width="1.8" stroke-miterlimit="10" stroke-linecap="round" stroke-linejoin="round"/>
<path d="M64.3824 82.9367C74.8206 82.9367 83.2824 74.4749 83.2824 64.0367C83.2824 53.5985 74.8206 45.1367 64.3824 45.1367C53.9442 45.1367 45.4824 53.5985 45.4824 64.0367C45.4824 74.4749 53.9442 82.9367 64.3824 82.9367Z" stroke="#ED323A" stroke-width="1.8" stroke-miterlimit="10" stroke-linecap="round" stroke-linejoin="round"/>
<path d="M64.3824 87.4367C77.3059 87.4367 87.7824 76.9602 87.7824 64.0367C87.7824 51.1133 77.3059 40.6367 64.3824 40.6367C51.459 40.6367 40.9824 51.1133 40.9824 64.0367C40.9824 76.9602 51.459 87.4367 64.3824 87.4367Z" stroke="#ED323A" stroke-width="1.8" stroke-miterlimit="10" stroke-linecap="round" stroke-linejoin="round"/>
<path d="M64.3828 45.1367V48.3767" stroke="#ED323A" stroke-width="1.8" stroke-miterlimit="10" stroke-linecap="round" stroke-linejoin="round"/>
<path d="M64.3828 79.875V83.115" stroke="#ED323A" stroke-width="1.8" stroke-miterlimit="10" stroke-linecap="round" stroke-linejoin="round"/>
<path d="M83.4627 64.0352H80.2227" stroke="#ED323A" stroke-width="1.8" stroke-miterlimit="10" stroke-linecap="round" stroke-linejoin="round"/>
<path d="M48.7224 64.0352H45.4824" stroke="#ED323A" stroke-width="1.8" stroke-miterlimit="10" stroke-linecap="round" stroke-linejoin="round"/>
<path d="M48.0029 73.577L50.7029 71.957" stroke="#ED323A" stroke-width="1.8" stroke-miterlimit="10" stroke-linecap="round" stroke-linejoin="round"/>
<path d="M78.0625 56.2958L80.9425 54.6758" stroke="#ED323A" stroke-width="1.8" stroke-miterlimit="10" stroke-linecap="round" stroke-linejoin="round"/>
<path d="M55.0225 47.6562L56.6425 50.5363" stroke="#ED323A" stroke-width="1.8" stroke-miterlimit="10" stroke-linecap="round" stroke-linejoin="round"/>
<path d="M72.3027 77.7148L73.9227 80.5948" stroke="#ED323A" stroke-width="1.8" stroke-miterlimit="10" stroke-linecap="round" stroke-linejoin="round"/>
<path d="M80.9425 73.577L78.0625 71.957" stroke="#ED323A" stroke-width="1.8" stroke-miterlimit="10" stroke-linecap="round" stroke-linejoin="round"/>
<path d="M50.7029 56.2958L48.0029 54.6758" stroke="#ED323A" stroke-width="1.8" stroke-miterlimit="10" stroke-linecap="round" stroke-linejoin="round"/>
<path d="M55.0225 80.5948L56.6425 77.7148" stroke="#ED323A" stroke-width="1.8" stroke-miterlimit="10" stroke-linecap="round" stroke-linejoin="round"/>
<path d="M72.3027 50.5363L73.9227 47.6562" stroke="#ED323A" stroke-width="1.8" stroke-miterlimit="10" stroke-linecap="round" stroke-linejoin="round"/>
<path d="M64.3827 65.6541C65.2774 65.6541 66.0027 64.9288 66.0027 64.0341C66.0027 63.1394 65.2774 62.4141 64.3827 62.4141C63.488 62.4141 62.7627 63.1394 62.7627 64.0341C62.7627 64.9288 63.488 65.6541 64.3827 65.6541Z" stroke="#ED323A" stroke-width="1.8" stroke-miterlimit="10" stroke-linecap="round" stroke-linejoin="round"/>
<path d="M64.3828 62.4173V58.2773" stroke="#ED323A" stroke-width="1.8" stroke-miterlimit="10" stroke-linecap="round" stroke-linejoin="round"/>
<path d="M62.7627 58.6356L64.3827 57.0156L66.0027 58.6356" stroke="#ED323A" stroke-width="1.8" stroke-miterlimit="10" stroke-linecap="round" stroke-linejoin="round"/>
<path d="M66.3623 64.0352H75.3623" stroke="#ED323A" stroke-width="1.8" stroke-miterlimit="10" stroke-linecap="round" stroke-linejoin="round"/>
<path d="M75.0029 62.4141L76.6229 64.0341L75.0029 65.6541" stroke="#ED323A" stroke-width="1.8" stroke-miterlimit="10" stroke-linecap="round" stroke-linejoin="round"/>
</svg>
