<svg width="90" height="91" viewBox="0 0 90 91" fill="none" xmlns="http://www.w3.org/2000/svg">
<path d="M25.7514 76.136V72.5743C25.7514 66.7911 28.598 61.103 33.5002 58.5513C31.9451 57.0319 29.9564 56.0756 27.7579 56.0756H16.6037C14.0924 56.0756 11.7998 57.3269 10.1241 59.3422C8.40812 61.4113 7.34007 64.2811 7.34007 67.4487V70.5767C7.31632 71.1765 7.5153 71.7639 7.8987 72.2257C11.6428 76.6185 16.6932 77.6955 22.1809 77.6955C23.4276 77.7029 24.6736 77.6357 25.9122 77.4944C25.8039 77.0498 25.7499 76.5936 25.7514 76.136ZM45.9771 4.27802L49.5432 11.227L57.2563 12.4692C57.4558 12.5022 57.6425 12.5892 57.7959 12.721C57.9493 12.8527 58.0635 13.024 58.1262 13.2163C58.1889 13.4085 58.1976 13.6143 58.1514 13.8111C58.1051 14.008 58.0057 14.1883 57.864 14.3325L52.3496 19.874L53.5517 27.5961C53.581 27.7949 53.5553 27.9979 53.4775 28.1832C53.3997 28.3685 53.2727 28.529 53.1102 28.6472C52.9478 28.7655 52.756 28.8371 52.5558 28.8543C52.3556 28.8715 52.1545 28.8336 51.9743 28.7447L44.9984 25.2143L38.0271 28.7447C37.8422 28.8383 37.6347 28.8778 37.4284 28.8586C37.2221 28.8394 37.0254 28.7623 36.861 28.6361C36.6966 28.51 36.5712 28.34 36.4992 28.1457C36.4272 27.9514 36.4116 27.7407 36.4542 27.5379L37.6472 19.8739L32.1328 14.3327C31.9885 14.1868 31.8879 14.0036 31.8421 13.8036C31.7963 13.6036 31.8072 13.3949 31.8737 13.2008C31.9401 13.0067 32.0593 12.8349 32.218 12.7049C32.3767 12.5749 32.5686 12.4918 32.7719 12.4649L40.4536 11.227L44.0195 4.27802C44.1117 4.09787 44.2519 3.94669 44.4246 3.84112C44.5973 3.73555 44.7958 3.67969 44.9982 3.67969C45.2006 3.67969 45.3991 3.73555 45.5718 3.84112C45.7445 3.94669 45.8847 4.09787 45.977 4.27802H45.9771ZM47.8404 12.724L44.9984 7.18737L42.1785 12.6841C42.1026 12.8485 41.9877 12.9919 41.8437 13.1017C41.6997 13.2115 41.531 13.2844 41.3523 13.3141L35.2074 14.3014L39.5956 18.7167C39.7178 18.8383 39.8095 18.9872 39.8631 19.1511C39.9168 19.3149 39.9308 19.4892 39.9041 19.6596L38.9477 25.813L44.5023 23.0022C44.6556 22.9233 44.8254 22.8817 44.9978 22.8809C45.1703 22.8801 45.3404 22.9201 45.4944 22.9977L51.0491 25.813L50.1017 19.7134C50.0645 19.5355 50.0723 19.3512 50.1245 19.1772C50.1767 19.0031 50.2716 18.8449 50.4005 18.7169L54.7894 14.3014L48.645 13.3095C48.474 13.2827 48.3119 13.2157 48.1721 13.1139C48.0322 13.012 47.9186 12.8784 47.8406 12.724H47.8404ZM22.1809 32.4849C24.1036 32.4854 25.9829 33.0559 27.5813 34.1243C29.1797 35.1928 30.4255 36.7112 31.161 38.4875C31.8965 40.2639 32.0889 42.2185 31.7136 44.1041C31.3384 45.9898 30.4125 47.7219 29.053 49.0814C27.6935 50.4409 25.9614 51.3667 24.0758 51.7419C22.1901 52.1171 20.2355 51.9247 18.4592 51.1891C16.6828 50.4536 15.1644 49.2078 14.096 47.6094C13.0276 46.0109 12.4571 44.1316 12.4567 42.209C12.4564 40.9319 12.7077 39.6673 13.1963 38.4873C13.6849 37.3074 14.4012 36.2353 15.3042 35.3323C16.2072 34.4293 17.2794 33.713 18.4593 33.2245C19.6392 32.7359 20.9039 32.4846 22.1809 32.4849ZM27.4941 36.8956C26.4432 35.8448 25.1043 35.1291 23.6467 34.8392C22.1891 34.5493 20.6783 34.6981 19.3053 35.2668C17.9323 35.8356 16.7587 36.7987 15.9331 38.0344C15.1074 39.2701 14.6667 40.7228 14.6667 42.209C14.6667 43.6951 15.1074 45.1479 15.9331 46.3836C16.7587 47.6193 17.9323 48.5824 19.3053 49.1511C20.6783 49.7198 22.1891 49.8686 23.6467 49.5787C25.1043 49.2888 26.4432 48.5732 27.4941 47.5223C28.1922 46.8247 28.746 45.9964 29.1238 45.0848C29.5017 44.1731 29.6961 43.1959 29.6961 42.209C29.6961 41.2221 29.5017 40.2449 29.1238 39.3332C28.746 38.4215 28.1922 37.5932 27.4941 36.8956ZM67.8204 32.4849C69.7431 32.4853 71.6224 33.0558 73.2208 34.1242C74.8193 35.1927 76.065 36.711 76.8006 38.4874C77.5362 40.2638 77.7285 42.2184 77.3533 44.104C76.9781 45.9897 76.0523 47.7218 74.6928 49.0813C73.3333 50.4408 71.6012 51.3667 69.7155 51.7419C67.8298 52.1171 65.8752 51.9247 64.0989 51.1892C62.3225 50.4536 60.8041 49.2078 59.7357 47.6094C58.6673 46.011 58.0968 44.1316 58.0964 42.209C58.0961 40.9319 58.3474 39.6673 58.836 38.4874C59.3245 37.3075 60.0408 36.2354 60.9438 35.3324C61.8468 34.4293 62.9189 33.7131 64.0988 33.2245C65.2787 32.7359 66.5434 32.4846 67.8204 32.4849ZM73.1338 36.8956C72.0828 35.8442 70.7436 35.1281 69.2856 34.8379C67.8277 34.5477 66.3163 34.6963 64.9429 35.2651C63.5694 35.8338 62.3954 36.7971 61.5694 38.0332C60.7435 39.2692 60.3026 40.7224 60.3026 42.209C60.3026 43.6956 60.7435 45.1488 61.5694 46.3848C62.3954 47.6208 63.5694 48.5841 64.9429 49.1529C66.3163 49.7216 67.8277 49.8703 69.2856 49.58C70.7436 49.2898 72.0828 48.5737 73.1338 47.5223C74.5424 46.1128 75.3336 44.2017 75.3336 42.209C75.3336 40.2163 74.5424 38.3051 73.1338 36.8956ZM54.2935 57.6754C56.3312 55.3562 59.1286 53.8724 62.2434 53.8724H73.3974C76.5882 53.8724 79.4751 55.4275 81.562 57.9345C83.5998 60.3879 84.8643 63.7575 84.8643 67.4487V70.5767C84.8823 71.7014 84.4936 72.7948 83.7696 73.6557C79.5684 78.5894 73.9337 79.9031 67.8204 79.9031C66.2116 79.9134 64.6043 79.8029 63.0121 79.5725C58.2618 85.1226 51.8982 86.5973 44.9984 86.5973C38.0986 86.5973 31.735 85.1226 26.9847 79.5725C25.394 79.8029 23.7882 79.9134 22.1809 79.9031C16.0637 79.9031 10.4324 78.5848 6.22738 73.6557C5.50326 72.7949 5.11442 71.7015 5.13243 70.5767V67.4487C5.13243 63.7573 6.39806 60.3879 8.43484 57.9345C10.5217 55.4275 13.4094 53.8724 16.6037 53.8724H27.7579C30.8682 53.8724 33.67 55.3562 35.7033 57.6754C36.6635 57.4081 37.6557 57.2728 38.6525 57.2732H51.3439C52.3408 57.2728 53.333 57.4081 54.2934 57.6754H54.2935ZM64.0845 77.4944C67.7311 77.9235 72.3027 77.7314 75.6364 76.6007C78.1514 75.7641 80.3872 74.2506 82.0983 72.2264C82.4815 71.7645 82.6805 71.1772 82.6567 70.5774V67.4487C82.6567 64.2802 81.5932 61.4113 79.8727 59.3422C78.197 57.3269 75.9044 56.0756 73.3974 56.0756H62.2434C60.0403 56.0756 58.0517 57.0319 56.4966 58.5513C61.4034 61.103 64.25 66.7918 64.25 72.5743V76.136C64.25 76.5938 64.1945 77.05 64.0845 77.4944ZM44.9984 31.9486C47.3521 31.9486 49.6529 32.6466 51.6099 33.9542C53.5669 35.2618 55.0922 37.1204 55.9929 39.2949C56.8936 41.4694 57.1293 43.8622 56.6701 46.1707C56.2109 48.4791 55.0775 50.5996 53.4132 52.2639C51.7489 53.9282 49.6285 55.0616 47.32 55.5207C45.0116 55.9799 42.6188 55.7442 40.4443 54.8435C38.2698 53.9428 36.4112 52.4175 35.1036 50.4605C33.7959 48.5035 33.098 46.2027 33.098 43.849C33.0978 42.2862 33.4055 40.7386 34.0035 39.2947C34.6015 37.8508 35.478 36.5388 36.5831 35.4338C37.6882 34.3287 39.0002 33.4521 40.4441 32.8541C41.888 32.2561 43.4356 31.9484 44.9984 31.9486ZM51.8539 36.9935C50.498 35.6378 48.7706 34.7146 46.89 34.3405C45.0094 33.9665 43.0602 34.1586 41.2888 34.8924C39.5174 35.6262 38.0033 36.8688 36.9381 38.463C35.8728 40.0573 35.3043 41.9316 35.3043 43.849C35.3043 45.7664 35.8728 47.6407 36.9381 49.235C38.0033 50.8293 39.5174 52.0719 41.2888 52.8057C43.0602 53.5394 45.0094 53.7315 46.89 53.3575C48.7706 52.9835 50.498 52.0602 51.8539 50.7045C53.6718 48.8861 54.693 46.4202 54.693 43.849C54.693 41.2778 53.6718 38.8119 51.8539 36.9935ZM27.9545 72.5743V76.136C27.9275 76.8538 28.168 77.556 28.6293 78.1067C32.9282 83.1475 38.7109 84.3905 44.9984 84.3905C51.2859 84.3905 57.073 83.1482 61.3675 78.1074C61.8288 77.5567 62.0693 76.8545 62.0423 76.1367V72.5743C62.0423 68.9323 60.8134 65.6299 58.8338 63.2481C56.9032 60.9242 54.2487 59.4807 51.3441 59.4807H38.6527C35.7481 59.4807 33.098 60.9242 31.163 63.2481C29.1834 65.6299 27.9545 68.9323 27.9545 72.5743Z" fill="#ED323A"/>
</svg>
