<svg width="91" height="90" viewBox="0 0 91 90" fill="none" xmlns="http://www.w3.org/2000/svg">
<path fill-rule="evenodd" clip-rule="evenodd" d="M33.5896 55.6397C35.8491 55.6397 38.0578 54.9697 39.9365 53.7144C41.8151 52.4591 43.2794 50.675 44.144 48.5875C45.0087 46.5 45.2349 44.203 44.7941 41.987C44.3533 39.7709 43.2653 37.7354 41.6676 36.1377C40.0699 34.54 38.0344 33.452 35.8183 33.0112C33.6023 32.5704 31.3053 32.7966 29.2178 33.6613C27.1304 34.5259 25.3462 35.9902 24.0909 37.8689C22.8356 39.7475 22.1656 41.9562 22.1656 44.2157C22.1656 45.7159 22.461 47.2015 23.0351 48.5875C23.6092 49.9736 24.4507 51.2329 25.5115 52.2938C26.5724 53.3546 27.8318 54.1961 29.2178 54.7702C30.6038 55.3443 32.0894 55.6398 33.5896 55.6397ZM26.3276 45.2099C26.0702 44.9449 25.9275 44.5893 25.9302 44.2199C25.9329 43.8505 26.0809 43.497 26.3421 43.2358C26.6033 42.9746 26.9568 42.8267 27.3262 42.824C27.6956 42.8213 28.0512 42.9641 28.3162 43.2215L31.5001 46.4058L38.8632 39.0428C39.1282 38.7855 39.4839 38.6427 39.8532 38.6454C40.2226 38.6482 40.5761 38.7961 40.8373 39.0573C41.0985 39.3185 41.2464 39.672 41.2491 40.0414C41.2518 40.4108 41.109 40.7664 40.8517 41.0314L32.4945 49.3886C32.2308 49.6523 31.8731 49.8004 31.5002 49.8004C31.1273 49.8004 30.7696 49.6523 30.5059 49.3886L26.3276 45.2099ZM57.1114 3.16797C59.2254 3.16795 61.2853 3.83577 62.9972 5.07608C64.7091 6.3164 65.9853 8.06581 66.6439 10.0746C67.3024 12.0834 67.3094 14.2489 66.6641 16.2619C66.0187 18.275 64.7539 20.0327 63.0502 21.2842C66.9664 22.461 70.4464 24.7713 73.0512 27.9236C75.6559 31.076 77.2688 34.9291 77.6863 38.9969C77.7048 39.1916 77.6825 39.3879 77.6208 39.5734C77.5592 39.759 77.4595 39.9296 77.3282 40.0745C77.1969 40.2193 77.0368 40.3352 76.8582 40.4147C76.6796 40.4942 76.4864 40.5356 76.2909 40.5363V40.5405H47.3469C47.9092 42.6471 47.9801 44.8548 47.5543 46.9932C47.1285 49.1316 46.2174 51.1437 44.8911 52.8743L54.2075 54.3994C58.3883 55.0837 60.4328 59.8214 59.0965 63.2901C60.3785 62.8202 61.6715 62.0818 63.0328 61.1035L75.2672 52.3113C79.5518 49.2322 86.0893 51.7275 86.9782 55.6336C87.334 57.198 86.8025 58.8228 84.9297 60.1687L60.8731 77.4577C59.8292 78.2304 58.6387 78.7822 57.3743 79.0792C56.11 79.3763 54.7983 79.4124 53.5195 79.1853L35.7626 76.2787C34.8472 76.1137 33.9076 76.138 33.0019 76.3501C32.0962 76.5621 31.2436 76.9575 30.4966 77.5118L29.4992 78.2287L30.988 80.3004C31.0967 80.4517 31.1741 80.6231 31.2158 80.8046C31.2575 80.9861 31.2626 81.174 31.2308 81.3575C31.1991 81.541 31.1311 81.7164 31.0309 81.8733C30.9306 82.0303 30.8002 82.1657 30.647 82.2716L24.4068 86.5872C24.133 86.7762 23.801 86.8617 23.47 86.8284C23.139 86.7951 22.8306 86.6452 22.5999 86.4055L3.8033 66.8324C3.66165 66.6853 3.55384 66.5091 3.48741 66.316C3.42098 66.1229 3.39752 65.9177 3.41868 65.7146C3.43984 65.5115 3.50511 65.3155 3.60992 65.1402C3.71474 64.965 3.85656 64.8147 4.02548 64.7L13.3095 58.0906C13.4633 57.982 13.6372 57.9052 13.8212 57.865C14.0051 57.8248 14.1952 57.822 14.3803 57.8566C14.5653 57.8913 14.7415 57.9628 14.8984 58.0668C15.0554 58.1708 15.1898 58.3053 15.2938 58.4622L16.7406 60.4755L24.3251 55.0248C21.7552 52.8198 20.0553 49.771 19.5303 46.4257C19.0054 43.0804 19.6898 39.6575 21.4607 36.7713C23.2317 33.8851 25.9732 31.7244 29.1934 30.677C32.4136 29.6297 35.9016 29.7642 39.0316 31.0564C41.6524 26.343 46.0077 22.8373 51.1721 21.284C49.4684 20.0325 48.2037 18.2747 47.5584 16.2616C46.9131 14.2486 46.9202 12.0831 47.5788 10.0743C48.2374 8.06555 49.5137 6.31618 51.2256 5.07591C52.9375 3.83565 54.9975 3.16789 57.1114 3.16797ZM46.2657 37.728C45.1572 35.5698 43.5179 33.7292 41.502 32.3791C43.293 29.1802 46.0237 26.609 49.3244 25.0135C52.6251 23.418 56.3364 22.8754 59.9558 23.459C63.5751 24.0427 66.9277 25.7245 69.5595 28.2767C72.1913 30.8289 73.9753 34.1283 74.6699 37.728H46.2657ZM42.4945 55.3237L53.7575 57.1674C56.2622 57.5774 57.3171 60.8293 56.3308 62.6054C55.972 63.2518 55.2852 63.7105 54.2268 63.742L44.8482 62.2069C44.6655 62.1751 44.4782 62.1799 44.2973 62.2209C44.1164 62.2619 43.9455 62.3385 43.7943 62.446C43.6432 62.5536 43.5149 62.6901 43.4169 62.8476C43.3189 63.005 43.2531 63.1804 43.2233 63.3635C43.1935 63.5466 43.2004 63.7338 43.2434 63.9142C43.2865 64.0946 43.3649 64.2647 43.4741 64.4147C43.5834 64.5646 43.7212 64.6913 43.8798 64.7876C44.0384 64.8839 44.2145 64.9477 44.3979 64.9755L53.8881 66.5288C57.964 67.1777 61.2845 65.8104 64.6704 63.3771L76.9047 54.5849C79.0317 53.0556 82.2727 53.7365 83.733 55.3611C84.5111 56.2268 84.4918 57.0324 83.2935 57.8938L59.2354 75.1834C58.4883 75.7378 57.6357 76.1332 56.7299 76.3453C55.8242 76.5574 54.8846 76.5817 53.9692 76.4167L36.2131 73.5102C34.935 73.2901 33.6258 73.3259 32.3616 73.6156C30.438 74.0671 29.4036 74.8473 27.8639 75.9535L18.3761 62.7524L26.7726 56.7178C29.2384 58.062 32.0465 58.647 34.8439 58.3992C37.6413 58.1514 40.3029 57.0819 42.494 55.3253L42.4945 55.3237ZM27.8808 80.7768L13.8007 61.1842L6.95083 66.0604L23.7958 83.6014L27.8802 80.7773L27.8808 80.7768ZM57.1114 5.98047C55.6837 5.9805 54.288 6.40391 53.1009 7.19714C51.9138 7.99038 50.9886 9.11781 50.4422 10.4369C49.8959 11.7559 49.753 13.2074 50.0315 14.6077C50.3101 16.008 50.9976 17.2943 52.0072 18.3038C53.0168 19.3134 54.303 20.0009 55.7033 20.2794C57.1036 20.5579 58.5551 20.4149 59.8742 19.8686C61.1932 19.3222 62.3206 18.3969 63.1138 17.2098C63.907 16.0227 64.3304 14.627 64.3304 13.1993C64.3304 12.2513 64.1437 11.3125 63.7809 10.4367C63.4182 9.56084 62.8864 8.76503 62.2161 8.0947C61.5457 7.42436 60.7499 6.89263 59.874 6.52987C58.9982 6.16711 58.0594 5.98042 57.1114 5.98047Z" fill="#ED323A"/>
</svg>
