<svg width="24" height="8" viewBox="0 0 24 8" fill="none" xmlns="http://www.w3.org/2000/svg">
<path d="M23.3984 3.25C23.6746 3.25 23.8984 3.47386 23.8984 3.75C23.8984 4.02614 23.6746 4.25 23.3984 4.25V3.25ZM0.398491 4.10355C0.20323 3.90829 0.20323 3.59171 0.398491 3.39645L3.58047 0.214466C3.77573 0.0192039 4.09232 0.0192039 4.28758 0.214466C4.48284 0.409728 4.48284 0.726311 4.28758 0.921573L1.45915 3.75L4.28758 6.57843C4.48284 6.77369 4.48284 7.09027 4.28758 7.28553C4.09232 7.4808 3.77573 7.4808 3.58047 7.28553L0.398491 4.10355ZM23.3984 3.75V4.25H0.752045V3.75V3.25H23.3984V3.75Z" fill="white"/>
</svg>
