<svg width="21" height="21" viewBox="0 0 21 21" fill="none" xmlns="http://www.w3.org/2000/svg">
<g clip-path="url(#clip0_4340_906)">
<path d="M10.0225 0.367188C5.88746 0.367188 2.52246 3.75552 2.52246 7.92135C2.52246 13.8405 9.31746 19.9522 9.60663 20.2089C9.72579 20.3147 9.87413 20.3672 10.0225 20.3672C10.1708 20.3672 10.3191 20.3147 10.4383 20.2097C10.7275 19.9522 17.5225 13.8405 17.5225 7.92135C17.5225 3.75552 14.1575 0.367188 10.0225 0.367188ZM10.0225 12.0339C7.72496 12.0339 5.85579 10.1647 5.85579 7.86719C5.85579 5.56969 7.72496 3.70052 10.0225 3.70052C12.32 3.70052 14.1891 5.56969 14.1891 7.86719C14.1891 10.1647 12.32 12.0339 10.0225 12.0339Z" fill="white"/>
</g>
<defs>
<clipPath id="clip0_4340_906">
<rect width="20" height="20" fill="white" transform="translate(0.0224609 0.367188)"/>
</clipPath>
</defs>
</svg>
