<svg width="25" height="25" viewBox="0 0 25 25" fill="none" xmlns="http://www.w3.org/2000/svg">
<path d="M12.6348 22.5938C13.4348 22.5938 14.2348 22.4938 14.9348 22.2938C14.5348 21.7938 14.1348 21.1938 13.9348 20.4937C13.5348 20.5938 13.0348 20.5938 12.6348 20.5938C8.23477 20.5938 4.63477 16.9937 4.63477 12.5938C4.63477 8.19375 8.23477 4.59375 12.6348 4.59375C13.4348 4.59375 14.1348 4.69375 14.8348 4.89375L16.4348 3.29375C15.2348 2.89375 13.9348 2.59375 12.6348 2.59375C7.13477 2.59375 2.63477 7.09375 2.63477 12.5938C2.63477 18.0938 7.13477 22.5938 12.6348 22.5938ZM7.13477 12.0938L8.53477 10.6938L11.6348 13.7937L20.2348 5.19375L21.6348 6.59375L11.6348 16.5938L7.13477 12.0938ZM19.6348 14.5938L18.3748 17.3438L15.6348 18.5938L18.3748 19.8538L19.6348 22.5938L20.8848 19.8538L23.6348 18.5938L20.8848 17.3438L19.6348 14.5938Z" fill="#ED323A"/>
</svg>
