<svg width="25" height="8" viewBox="0 0 25 8" fill="none" xmlns="http://www.w3.org/2000/svg">
<path d="M1.43652 3.38281C1.16038 3.38281 0.936523 3.60667 0.936523 3.88281C0.936523 4.15895 1.16038 4.38281 1.43652 4.38281V3.38281ZM24.4365 4.23637C24.6317 4.0411 24.6317 3.72452 24.4365 3.52926L21.2545 0.347279C21.0592 0.152016 20.7426 0.152016 20.5474 0.347279C20.3521 0.542541 20.3521 0.859123 20.5474 1.05439L23.3758 3.88281L20.5474 6.71124C20.3521 6.9065 20.3521 7.22308 20.5474 7.41835C20.7426 7.61361 21.0592 7.61361 21.2545 7.41835L24.4365 4.23637ZM1.43652 3.88281V4.38281H24.0829V3.88281V3.38281H1.43652V3.88281Z" fill="#ED323A"/>
</svg>
