<svg width="25" height="8" viewBox="0 0 25 8" fill="none" xmlns="http://www.w3.org/2000/svg">
<path d="M23.9697 3.38281C24.2459 3.38281 24.4697 3.60667 24.4697 3.88281C24.4697 4.15895 24.2459 4.38281 23.9697 4.38281V3.38281ZM0.96978 4.23637C0.774519 4.0411 0.774519 3.72452 0.96978 3.52926L4.15176 0.347279C4.34702 0.152016 4.6636 0.152016 4.85887 0.347279C5.05413 0.542541 5.05413 0.859123 4.85887 1.05439L2.03044 3.88281L4.85887 6.71124C5.05413 6.9065 5.05413 7.22308 4.85887 7.41835C4.6636 7.61361 4.34702 7.61361 4.15176 7.41835L0.96978 4.23637ZM23.9697 3.88281V4.38281H1.32333V3.88281V3.38281H23.9697V3.88281Z" fill="#ED323A"/>
</svg>
