<svg width="25" height="8" viewBox="0 0 25 8" fill="none" xmlns="http://www.w3.org/2000/svg">
<path d="M0.865234 3.25C0.589092 3.25 0.365234 3.47386 0.365234 3.75C0.365234 4.02614 0.589092 4.25 0.865234 4.25V3.25ZM23.8652 4.10355C24.0604 3.90829 24.0604 3.59171 23.8652 3.39645L20.6832 0.214466C20.4879 0.0192039 20.1714 0.0192039 19.9761 0.214466C19.7808 0.409728 19.7808 0.726311 19.9761 0.921573L22.8045 3.75L19.9761 6.57843C19.7808 6.77369 19.7808 7.09027 19.9761 7.28553C20.1714 7.4808 20.4879 7.4808 20.6832 7.28553L23.8652 4.10355ZM0.865234 3.75V4.25H23.5116V3.75V3.25H0.865234V3.75Z" fill="white"/>
</svg>
