<svg width="315" height="56" viewBox="0 0 315 56" fill="none" xmlns="http://www.w3.org/2000/svg">
<g clip-path="url(#clip0_4340_754)">
<path d="M7.94043 1.28125V10.1401H16.7961V31.8644H28.5914V10.1401H37.4104V1.28125H7.94043Z" fill="black"/>
<path d="M58.0245 1.28125L69.8934 31.8644H57.7673L51.7043 13.963L45.678 31.8644H33.4785L45.4208 1.28125H58.0245Z" fill="black"/>
<path d="M66.9531 1.28125V10.1401H75.7721V31.8644H87.6041V10.1401H96.4231V1.28125H66.9531Z" fill="black"/>
<path d="M117.074 1.28125L128.943 31.8644H116.78L110.717 13.963L104.654 31.8644H92.5283L104.434 1.28125H117.074Z" fill="black"/>
<path d="M167.967 30.9798C166.681 31.6414 163.742 32.3398 159.957 32.3398C150.183 32.3398 144.267 26.2379 144.267 16.8645C144.267 6.75587 151.322 0.617188 160.729 0.617188C164.44 0.617188 167.012 1.38912 168.151 1.97725L166.975 6.4618C165.506 5.80014 163.448 5.28552 160.912 5.28552C154.666 5.28552 150.146 9.21869 150.146 16.5704C150.146 23.334 154.078 27.5612 160.839 27.5612C163.08 27.5612 165.469 27.0834 166.939 26.4585L167.82 30.8695L167.931 30.9798H167.967Z" fill="black"/>
<path d="M187.847 1.13281H180.681L170.87 31.8997H176.639L179.285 23.188H189.059L191.815 31.8997H197.805L187.773 1.13281H187.847ZM184.062 18.924H180.13L182.555 11.3149C183.07 9.47701 183.547 7.30825 184.025 5.54384H184.135C184.613 7.38177 185.091 9.47701 185.679 11.3149L188.104 18.924H184.099H184.062Z" fill="black"/>
<path d="M219.705 3.4511C218.015 2.05428 215.59 1.20883 212.356 0.988281H210.666C206.955 0.988281 204.125 1.20883 202.067 1.64994V32.0125H207.653V20.36C208.424 20.5438 209.343 20.5806 210.409 20.5806C211.07 20.5806 211.768 20.5806 212.393 20.4703C215.516 20.1763 218.199 19.1103 220.109 17.2356C221.8 15.5814 222.682 13.2289 222.682 10.2882C222.682 7.34751 221.506 4.99496 219.669 3.4511H219.705ZM212.356 15.9123C211.768 16.0225 211.07 16.0961 210.372 16.0961C209.196 16.0961 208.388 16.0225 207.616 15.802V5.50958C208.204 5.32579 209.306 5.21552 210.85 5.21552C211.364 5.21552 211.915 5.21552 212.393 5.32579C215.406 5.73014 217.17 7.49455 217.17 10.4352C217.17 13.3759 215.406 15.3241 212.393 15.9123H212.356Z" fill="black"/>
<path d="M233.191 1.13281H227.605V31.8997H233.191V1.13281Z" fill="black"/>
<path d="M245.537 5.83791H236.792V1.13281H259.942V5.83791H251.123V31.863H245.537V5.83791Z" fill="black"/>
<path d="M274.971 1.13281H267.805L257.994 31.8997H263.763L266.409 23.188H276.183L278.939 31.8997H284.929L274.897 1.13281H274.971ZM271.296 18.924H267.364L269.716 11.3149C270.23 9.47701 270.708 7.30825 271.186 5.54384H271.296V5.65412C271.774 7.41853 272.251 9.47701 272.839 11.3149L275.265 18.924H271.333H271.296Z" fill="black"/>
<path d="M289.265 1.13281H294.887V27.1579H307.49V31.863H289.265V1.13281Z" fill="black"/>
<path d="M307.527 45.5742H7.94043V55.7563H307.527V45.5742Z" fill="#D7DB29"/>
</g>
<defs>
<clipPath id="clip0_4340_754">
<rect width="314" height="55" fill="white" transform="translate(0.751953 0.6875)"/>
</clipPath>
</defs>
</svg>
